<svg id="Capa_1" enable-background="new 0 0 512 512" height="512" viewBox="0 0 512 512" width="512" xmlns="http://www.w3.org/2000/svg"><g><path d="m302.915 226.547c0-4.138 3.373-7.512 7.512-7.512s7.483 3.374 7.483 7.512v154.518c0 10.488-4.252 19.984-11.169 26.873-6.888 6.888-16.385 11.168-26.845 11.168h-20.75v24.321c0 3.544 1.446 6.747 3.77 9.071 2.324 2.353 5.556 3.798 9.07 3.798h93.091v-177.505c-3.968-1.247-7.512-3.43-10.374-6.293-4.593-4.592-7.427-10.913-7.427-17.887v-17.801-61.23c0-4.139 3.345-7.512 7.483-7.512h10.317v-36.256c0-4.138 3.374-7.512 7.512-7.512 4.139 0 7.484 3.374 7.484 7.512v36.256h10.318c4.139 0 7.513 3.373 7.513 7.512v61.23 17.801c0 6.974-2.863 13.295-7.428 17.887-2.891 2.863-6.436 5.046-10.403 6.293v177.507h39.855c3.516 0 6.719-1.445 9.071-3.798 2.324-2.324 3.77-5.527 3.77-9.071v-235.902c-3.968-1.219-7.512-3.43-10.374-6.292-4.593-4.592-7.427-10.914-7.427-17.887v-17.802-61.229c0-4.139 3.345-7.512 7.483-7.512h10.317v-36.256c0-4.139 3.373-7.512 7.512-7.512s7.484 3.373 7.484 7.512v36.255h10.317c4.139 0 7.512 3.373 7.512 7.512v61.229 17.802c0 6.973-2.862 13.295-7.427 17.887-2.891 2.863-6.435 5.074-10.402 6.292v235.902c0 7.683-3.118 14.628-8.164 19.673-5.046 5.046-12.02 8.192-19.673 8.192h-39.855v12.869c0 7.653-3.118 14.627-8.164 19.673s-12.02 8.164-19.673 8.164h-219.173c-7.682 0-14.655-3.118-19.701-8.164-5.046-5.045-8.165-12.02-8.165-19.673v-65.056h-20.749c-10.46 0-19.984-4.28-26.873-11.168-6.888-6.889-11.168-16.385-11.168-26.873v-343.023c0-10.459 4.28-19.984 11.168-26.873 6.888-6.888 16.413-11.169 26.873-11.169h195.451c10.46 0 19.957 4.281 26.845 11.169 6.917 6.888 11.169 16.413 11.169 26.873v154.518c0 4.167-3.345 7.512-7.483 7.512-4.139 0-7.512-3.345-7.512-7.512v-154.518c0-6.321-2.58-12.075-6.776-16.271-4.167-4.167-9.921-6.775-16.242-6.775h-195.452c-6.321 0-12.076 2.608-16.271 6.775-4.167 4.195-6.775 9.949-6.775 16.271v343.024c0 6.35 2.608 12.104 6.775 16.271 4.195 4.195 9.95 6.775 16.271 6.775h20.749v-16.328c-4.393-1.275-8.334-3.657-11.48-6.803-4.847-4.847-7.852-11.565-7.852-18.993 0-7.398 3.004-14.116 7.852-18.964 4.848-4.847 11.565-7.852 18.964-7.852 7.427 0 14.145 3.004 18.992 7.852s7.852 11.565 7.852 18.964c0 7.427-3.005 14.145-7.852 18.993-3.146 3.146-7.086 5.528-11.48 6.803v16.328h123.96v-16.328c-4.422-1.275-8.333-3.657-11.48-6.803-4.876-4.847-7.88-11.565-7.88-18.993 0-7.398 3.005-14.116 7.88-18.964 4.848-4.847 11.566-7.852 18.964-7.852 7.426 0 14.117 3.004 18.992 7.852 4.848 4.848 7.852 11.565 7.852 18.964 0 7.427-3.005 14.145-7.852 18.993-3.175 3.146-7.086 5.528-11.48 6.803v16.328h20.75c6.321 0 12.075-2.58 16.242-6.775 4.196-4.167 6.776-9.921 6.776-16.271zm127.05-114.718v46.205h20.636v-46.205c-6.888 0-13.777 0-20.636 0zm-67.693 117.468h20.637v-46.234h-20.637zm20.637 14.996h-20.637v10.318c0 2.835 1.162 5.415 3.033 7.285 1.87 1.871 4.45 3.033 7.284 3.033 2.722 0 5.33-1.105 7.285-3.033 1.871-1.871 3.034-4.45 3.034-7.285v-10.318zm67.692-71.264h-20.636v10.318c0 2.834 1.162 5.414 3.033 7.285 1.87 1.871 4.45 3.033 7.284 3.033 2.722 0 5.33-1.106 7.257-3.033 1.899-1.871 3.061-4.451 3.061-7.285v-10.318zm-85.523 298.265h-93.091c-7.653 0-14.626-3.146-19.672-8.192-5.046-5.045-8.164-11.99-8.164-19.673v-24.321h-123.96v65.056c0 3.515 1.446 6.719 3.799 9.071 2.324 2.324 5.527 3.77 9.071 3.77h219.177c3.516 0 6.719-1.446 9.071-3.77 2.324-2.353 3.77-5.556 3.77-9.071v-12.87zm-244.008-117.668c-2.154-2.154-5.103-3.458-8.391-3.458-3.26 0-6.208 1.304-8.363 3.458-2.126 2.154-3.458 5.102-3.458 8.362 0 3.289 1.332 6.237 3.458 8.391 2.154 2.126 5.103 3.458 8.363 3.458 3.288 0 6.236-1.332 8.391-3.458 2.126-2.154 3.458-5.103 3.458-8.391 0-3.26-1.332-6.208-3.458-8.362zm138.927 0c-2.126-2.154-5.103-3.458-8.362-3.458-3.26 0-6.236 1.304-8.362 3.458-2.154 2.154-3.487 5.102-3.487 8.362 0 3.289 1.333 6.237 3.487 8.391 2.126 2.126 5.102 3.458 8.362 3.458 3.259 0 6.236-1.332 8.362-3.458 2.154-2.154 3.486-5.103 3.486-8.391 0-3.26-1.332-6.208-3.486-8.362zm-85.324-179.18c0-4.139 3.345-7.512 7.484-7.512 4.138 0 7.512 3.373 7.512 7.512v12.897c0 4.139-3.374 7.513-7.512 7.513-4.139 0-7.484-3.374-7.484-7.513zm-92.778 107.775c-4.139 0-7.483-3.374-7.483-7.513 0-4.138 3.345-7.512 7.483-7.512h12.925c4.139 0 7.483 3.374 7.483 7.512 0 4.139-3.345 7.513-7.483 7.513zm187.627 0c-4.139 0-7.512-3.374-7.512-7.513 0-4.138 3.373-7.512 7.512-7.512h12.897c4.167 0 7.512 3.374 7.512 7.512 0 4.139-3.345 7.513-7.512 7.513zm-177.961-51.166c-3.571-2.069-4.791-6.633-2.721-10.205 2.069-3.6 6.633-4.819 10.204-2.75l11.198 6.492c3.571 2.069 4.791 6.661 2.721 10.233-2.069 3.572-6.662 4.791-10.233 2.721zm169.967 6.406c-3.572 2.041-8.136.822-10.205-2.749-2.041-3.601-.822-8.165 2.75-10.205l11.197-6.435c3.601-2.069 8.164-.822 10.205 2.75 2.069 3.571.822 8.135-2.75 10.205zm-135.98-45.865c-2.069-3.571-.85-8.135 2.722-10.205 3.571-2.069 8.164-.85 10.233 2.721l6.463 11.197c2.069 3.572.851 8.136-2.721 10.205-3.6 2.069-8.164.85-10.233-2.721zm106.783 11.198c-2.069 3.571-6.661 4.79-10.233 2.721s-4.791-6.633-2.721-10.205l6.463-11.197c2.069-3.571 6.633-4.791 10.205-2.721 3.6 2.069 4.819 6.633 2.749 10.205zm-7.484 93.685h-28.403c-6.01 0-11.452-2.438-15.393-6.378-3.94-3.968-6.378-9.411-6.378-15.393 0-6.009 2.438-11.452 6.378-15.392s9.383-6.378 15.393-6.378h28.403c-2.296-4.479-5.272-8.589-8.816-12.104-8.646-8.674-20.637-14.032-33.874-14.032-10.573 0-20.325 3.401-28.233 9.185-8.164 5.953-14.344 14.4-17.462 24.18-1.247 3.94-5.442 6.123-9.382 4.876-3.912-1.247-6.095-5.442-4.848-9.383 4.082-12.897 12.189-23.953 22.848-31.749 10.403-7.625 23.244-12.104 37.078-12.104 17.377 0 33.109 7.03 44.504 18.425 11.367 11.368 18.425 27.1 18.425 44.476 0 17.377-7.058 33.109-18.425 44.476-11.396 11.396-27.128 18.426-44.504 18.426-13.833 0-26.674-4.479-37.078-12.104-10.659-7.795-18.766-18.85-22.848-31.748-1.247-3.94.936-8.135 4.848-9.382 3.94-1.248 8.135.935 9.382 4.876 3.118 9.779 9.298 18.227 17.462 24.179 7.909 5.783 17.66 9.185 28.233 9.185 13.238 0 25.229-5.358 33.874-14.032 3.544-3.544 6.52-7.626 8.816-12.105zm4.762-28.545h-33.166c-1.871 0-3.543.765-4.79 2.012-1.219 1.219-1.984 2.92-1.984 4.762 0 1.843.765 3.544 1.984 4.763 1.248 1.248 2.92 2.013 4.79 2.013h33.166c.312-2.211.454-4.479.454-6.775s-.142-4.564-.454-6.775zm-118.63-169.826c0-4.167 3.345-7.512 7.512-7.512 4.139 0 7.483 3.345 7.483 7.512v10.177c0 4.139-3.345 7.483-7.483 7.483-4.167 0-7.512-3.345-7.512-7.483zm127.362-30.557c0-4.139 3.373-7.484 7.512-7.484s7.512 3.345 7.512 7.484v40.734c0 4.139-3.373 7.483-7.512 7.483s-7.512-3.345-7.512-7.483zm-31.834 10.176c0-4.139 3.373-7.483 7.512-7.483s7.483 3.345 7.483 7.483v30.558c0 4.139-3.345 7.483-7.483 7.483-4.139 0-7.512-3.345-7.512-7.483zm-31.834 10.205c0-4.167 3.345-7.512 7.484-7.512 4.138 0 7.512 3.345 7.512 7.512v20.353c0 4.139-3.374 7.483-7.512 7.483-4.139 0-7.484-3.345-7.484-7.483zm-31.862-20.381c0-4.139 3.374-7.484 7.512-7.484 4.139 0 7.484 3.345 7.484 7.484v40.734c0 4.139-3.345 7.483-7.484 7.483s-7.512-3.345-7.512-7.483zm56.354-21.998c-4.167 0-7.512-3.373-7.512-7.512s3.345-7.512 7.512-7.512h66.472c6.266 0 11.963 2.58 16.073 6.69 4.139 4.139 6.689 9.808 6.689 16.101v69.195c0 6.293-2.551 11.991-6.689 16.101-4.11 4.11-9.808 6.69-16.073 6.69h-166.933c-6.265 0-11.962-2.58-16.101-6.69-4.11-4.11-6.69-9.808-6.69-16.101v-69.195c0-6.293 2.58-11.962 6.69-16.101 4.138-4.11 9.836-6.69 16.101-6.69h66.473c4.139 0 7.512 3.373 7.512 7.512s-3.374 7.512-7.512 7.512h-66.473c-2.126 0-4.082.851-5.499 2.268-1.389 1.417-2.268 3.373-2.268 5.499v69.195c0 2.154.879 4.082 2.268 5.499 1.417 1.417 3.373 2.296 5.499 2.296h166.934c2.127 0 4.054-.879 5.472-2.296 1.417-1.417 2.296-3.345 2.296-5.499v-69.195c0-2.126-.879-4.082-2.296-5.499-1.418-1.417-3.345-2.268-5.472-2.268z"/></g></svg>